#!OML:ASF F:\VICON\USERDATA\INSTALL\rory3\rory3.ASF
:FULLY-SPECIFIED
:DEGREES
177
root 0.475941 17.4391 1.54543 -0.255341 0.334007 7.00497
lowerback 7.62546 -1.78809 -6.26693
upperback 1.05386 -2.87271 0.672421
thorax -2.83693 -1.36407 4.49878
lowerneck -16.1685 -2.49505 -9.65153
upperneck 20.2639 -2.00864 4.62506
head 9.19576 -1.18325 2.94227
rclavicle 3.11098e-014 -9.54166e-015
rhumerus -30.546 -6.28346 -79.217
rradius 32.8593
rwrist 3.81843
rhand -13.477 18.7047
rfingers 7.12502
rthumb 12.6333 -10.8933
lclavicle 3.11098e-014 -9.54166e-015
lhumerus -28.5926 0.202481 83.0708
lradius 29.4316
lwrist -10.6104
lhand -16.7433 23.7603
lfingers 7.12502
lthumb 9.483 53.5269
rfemur -37.7737 -0.88189 13.2423
rtibia 56.6086
rfoot -10.5643 -12.6664
rtoes -7.98466
lfemur 1.46314 -2.61647 -31.4058
ltibia 18.7844
lfoot -15.4096 0.153614
ltoes -0.527584
178
root 0.471194 17.4357 1.71804 -0.0289488 0.427256 7.31703
lowerback 7.61668 -1.83577 -6.51503
upperback 1.04956 -2.95803 0.610322
thorax -2.81676 -1.40479 4.58047
lowerneck -16.3672 -2.54372 -9.85109
upperneck 20.2247 -2.05959 4.87549
head 9.22708 -1.19222 3.05555
rclavicle -3.19049e-014 2.38542e-015
rhumerus -30.7354 -6.50913 -79.1006
rradius 32.4715
rwrist 4.44672
rhand -13.7458 19.8491
rfingers 7.12502
rthumb 12.3742 -9.76463
lclavicle -3.19049e-014 2.38542e-015
lhumerus -27.8432 -0.127176 82.9069
lradius 29.7178
lwrist -10.435
lhand -17.0688 23.8089
lfingers 7.12502
lthumb 9.16897 53.5895
rfemur -38.3336 -0.160118 12.4714
rtibia 53.8251
rfoot -9.86642 -12.9922
rtoes -4.43807
lfemur 2.69099 -2.72008 -31.7677
ltibia 17.2289
lfoot -15.1349 0.0787144
ltoes -0.402801
179
root 0.458589 17.4299 1.89476 0.172668 0.474169 7.4394
lowerback 7.52973 -1.92317 -6.66134
upperback 1.11165 -3.07804 0.598801
thorax -2.68123 -1.46989 4.65464
lowerneck -16.7688 -2.55006 -9.73052
upperneck 20.2099 -2.04947 4.84111
head 9.2928 -1.17728 3.0241
rclavicle 1.49089e-015 4.77083e-015
rhumerus -30.828 -6.68418 -79.1697
rradius 32.3685
rwrist 4.71672
rhand -13.7473 20.0977
rfingers 7.12502
rthumb 12.3728 -9.51617
lclavicle 1.49089e-015 4.77083e-015
lhumerus -27.2217 -0.589512 82.6817
lradius 30.2997
lwrist -10.0585
lhand -16.7805 24.735
lfingers 7.12502
lthumb 9.44711 54.5033
rfemur -38.6653 0.706527 11.8885
rtibia 50.898
rfoot -9.34217 -13.3486
rtoes -0.643151
lfemur 3.93839 -2.59116 -31.8714
ltibia 15.6833
lfoot -14.9059 -0.118595
ltoes -1.36269
180
root 0.450079 17.4294 2.07446 0.313394 0.576237 7.52334
lowerback 7.53443 -1.98579 -6.75845
upperback 1.06489 -3.16944 0.653193
thorax -2.71246 -1.51194 4.77528
lowerneck -16.7668 -2.51042 -9.64336
upperneck 20.2745 -1.98153 4.67895
head 9.30732 -1.15801 2.96263
rclavicle 3.46879e-014 3.18055e-015
rhumerus -31.1762 -6.69958 -79.0595
rradius 32.2978
rwrist 4.70762
rhand -13.5881 19.8857
rfingers 7.12502
rthumb 12.5262 -9.71887
lclavicle 3.46879e-014 3.18055e-015
lhumerus -27.0416 -0.952235 82.6173
lradius 31.2735
lwrist -9.72606
lhand -16.465 25.5256
lfingers 7.12502
lthumb 9.75152 55.2799
rfemur -38.7749 1.47083 11.3277
rtibia 47.9059
rfoot -7.51562 -13.545
rtoes -2.22252
lfemur 5.27783 -2.515 -31.9409
ltibia 14.1265
lfoot -14.6153 -0.262593
ltoes -1.11017
181
root 0.442246 17.4275 2.25089 0.453022 0.810809 7.4582
lowerback 7.52521 -2.1029 -6.63754
upperback 1.13433 -3.31117 0.684059
thorax -2.62138 -1.58886 4.7484
lowerneck -16.9958 -2.51728 -9.53375
upperneck 20.3372 -1.97827 4.59556
head 9.36897 -1.15599 2.91631
rclavicle 3.55825e-014 -2.38542e-014
rhumerus -31.1527 -6.91323 -79.0281
rradius 31.7957
rwrist 4.88069
rhand -13.6374 19.8766
rfingers 7.12502
rthumb 12.4788 -9.73086
lclavicle 3.55825e-014 -2.38542e-014
lhumerus -26.6072 -1.20291 82.4085
lradius 32.149
lwrist -9.53051
lhand -16.4953 25.1542
lfingers 7.12502
lthumb 9.72234 54.9098
rfemur -38.776 2.14201 10.9101
rtibia 44.8942
rfoot -4.32109 -13.5065
rtoes -9.64447
lfemur 6.7245 -2.51284 -31.8385
ltibia 12.3749
lfoot -14.1643 -0.374122
ltoes -1.29225
182
root 0.431751 17.4234 2.43651 0.640861 1.02997 7.35436
lowerback 7.28545 -2.25104 -6.56687
upperback 1.25305 -3.47841 0.784967
thorax -2.34007 -1.68663 4.81007
lowerneck -17.3511 -2.54798 -9.52962
upperneck 20.3326 -1.96238 4.50177
head 9.43105 -1.15503 2.88418
rclavicle -4.67144e-014 1.66979e-014
rhumerus -31.1367 -6.90193 -78.978
rradius 31.4654
rwrist 4.87044
rhand -13.3484 19.8187
rfingers 7.12502
rthumb 12.7573 -9.77152
lclavicle -4.67144e-014 1.66979e-014
lhumerus -25.9499 -1.10355 82.179
lradius 32.7274
lwrist -9.37791
lhand -16.7157 24.6336
lfingers 7.12502
lthumb 9.50971 54.399
rfemur -38.7678 2.72852 10.5775
rtibia 41.8981
rfoot -6.37859 -14.5095
rtoes 0.199618
lfemur 8.27534 -2.51052 -31.6925
ltibia 10.3619
lfoot -13.4933 -0.577092
ltoes -1.27684
183
root 0.422156 17.418 2.62237 0.781784 1.28981 7.58489
lowerback 7.08182 -2.39068 -6.76107
upperback 1.25207 -3.66576 0.731995
thorax -2.19434 -1.78443 4.86584
lowerneck -17.0778 -2.46243 -9.581
upperneck 20.148 -1.88285 4.61972
head 9.31123 -1.10808 2.94217
rclavicle 2.20651e-014 -1.51076e-014
rhumerus -31.4243 -7.17766 -78.9039
rradius 31.1533
rwrist 5.15367
rhand -13.2989 19.5448
rfingers 7.12502
rthumb 12.805 -10.0425
lclavicle 2.20651e-014 -1.51076e-014
lhumerus -25.5509 -1.18502 81.9441
lradius 33.1841
lwrist -9.14332
lhand -16.9068 24.8389
lfingers 7.12502
lthumb 9.3253 54.6126
rfemur -38.6753 3.1794 9.89902
rtibia 38.9735
rfoot -5.86281 -14.9764
rtoes -1.46383
lfemur 9.97187 -2.85428 -31.9521
ltibia 8.08699
lfoot -12.601 -0.547072
ltoes -1.77017
184
root 0.407268 17.4125 2.8061 0.936378 1.55425 7.64898
lowerback 7.02184 -2.51236 -6.85112
upperback 1.21663 -3.83065 0.748654
thorax -2.16881 -1.86613 4.94291
lowerneck -16.6747 -2.35206 -9.64126
upperneck 19.8443 -1.7974 4.82206
head 9.12645 -1.04896 3.02955
rclavicle -1.68967e-014 1.03368e-014
rhumerus -31.6162 -7.73782 -78.7325
rradius 30.6721
rwrist 5.76966
rhand -13.3044 19.4669
rfingers 7.12502
rthumb 12.7997 -10.1207
lclavicle -1.68967e-014 1.03368e-014
lhumerus -25.2683 -1.32229 81.747
lradius 33.6863
lwrist -8.88135
lhand -17.1292 24.7679
lfingers 7.12502
lthumb 9.11066 54.5512
rfemur -38.551 3.7591 9.34667
rtibia 36.1694
rfoot -5.86221 -15.3428
rtoes -2.33276
lfemur 12.1626 -3.20692 -32.0232
ltibia 4.82679
lfoot -11.3992 -0.575075
ltoes -1.71785
185
root 0.391482 17.4032 2.99955 1.10006 1.70012 7.55407
lowerback 6.84335 -2.60459 -6.80386
upperback 1.27023 -3.93273 0.831098
thorax -1.99702 -1.92569 4.99625
lowerneck -16.7694 -2.29063 -9.53385
upperneck 19.809 -1.70578 4.715
head 9.1223 -1.00797 2.98558
rclavicle -1.27222e-014 7.15625e-015
rhumerus -31.6998 -8.14446 -78.5812
rradius 30.2659
rwrist 6.27988
rhand -13.4861 19.9424
rfingers 7.12502
rthumb 12.6246 -9.65609
lclavicle -1.27222e-014 7.15625e-015
lhumerus -24.813 -1.54055 81.5975
lradius 34.1112
lwrist -8.43363
lhand -17.213 24.5471
lfingers 7.12502
lthumb 9.02977 54.3338
rfemur -38.4895 4.56008 8.89989
rtibia 33.5757
rfoot -6.30373 -15.6826
rtoes -3.3671
lfemur 15.2768 -3.43326 -31.982
ltibia -3.18055e-015
lfoot -9.5197 -0.596908
ltoes -2.06804
186
root 0.377219 17.392 3.1959 1.2554 2.08269 7.67876
lowerback 6.64889 -2.75642 -6.96309
upperback 1.32306 -4.12874 0.873333
thorax -1.79243 -2.03251 5.12726
lowerneck -16.8782 -2.29687 -9.59364
upperneck 19.7627 -1.6834 4.70364
head 9.1252 -1.00125 2.99364
rclavicle -1.50082e-014 1.19271e-014
rhumerus -31.9036 -8.57863 -78.3651
rradius 29.8043
rwrist 6.64915
rhand -13.1885 20.1981
rfingers 7.12502
rthumb 12.9115 -9.38249
lclavicle -1.50082e-014 1.19271e-014
lhumerus -24.401 -1.51362 81.4847
lradius 34.6071
lwrist -8.32003
lhand -17.2781 24.494
lfingers 7.12502
lthumb 8.96698 54.2834
rfemur -38.3598 5.15558 8.1595
rtibia 31.193
rfoot -7.16849 -16.0151
rtoes -4.99579
lfemur 15.9037 -3.89581 -32.1419
ltibia 2.8625e-014
lfoot -9.82533 -0.249739
ltoes -2.22324
187
root 0.362071 17.3833 3.39267 1.43739 2.51381 7.97589
lowerback 6.5341 -2.92051 -7.25893
upperback 1.29112 -4.36021 0.852694
thorax -1.70874 -2.14943 5.2783
lowerneck -17.0835 -2.32985 -9.6637
upperneck 19.9684 -1.7033 4.75275
head 9.23681 -1.01241 3.02314
rclavicle 2.55438e-014 3.18055e-015
rhumerus -32.0782 -9.28771 -78.0546
rradius 29.1212
rwrist 7.32445
rhand -13.2131 20.5374
rfingers 7.12502
rthumb 12.8878 -9.04469
lclavicle 2.55438e-014 3.18055e-015
lhumerus -24.0293 -1.39496 81.3387
lradius 34.9535
lwrist -8.25091
lhand -17.6032 24.0248
lfingers 7.12502
lthumb 8.65325 53.8274
rfemur -38.2366 5.54021 7.28235
rtibia 29.0992
rfoot -8.6045 -16.1439
rtoes -6.65857
lfemur 16.4608 -4.41341 -32.4736
ltibia 5.40694e-014
lfoot -10.0547 -0.0330736
ltoes -2.08646
